<svg width="24" height="24" viewBox="0 0 24 24" fill="none" xmlns="http://www.w3.org/2000/svg">
<path d="M18.3995 2.79999H16.3995V2.40001C16.3995 1.96 16.0395 1.60001 15.5995 1.60001H14.3996V1.19998C14.3996 0.519977 13.8796 0 13.1996 0H10.7996C10.1195 0 9.59957 0.560008 9.59957 1.19998V1.59996H8.39959C7.95958 1.59996 7.59959 1.95996 7.59959 2.39997V2.79995H5.5996C4.47958 2.79995 3.59961 3.67996 3.59961 4.79993V21.9999C3.59961 23.1199 4.47963 23.9999 5.5996 23.9999H18.3996C19.5196 23.9999 20.3996 23.1199 20.3996 21.9999V4.79998C20.3996 3.68001 19.5195 2.79999 18.3995 2.79999ZM8.39954 2.40001H9.99955C10.2395 2.40001 10.3995 2.24003 10.3995 2.00004V1.19998C10.3995 0.959987 10.5595 0.800005 10.7995 0.800005H13.1995C13.4395 0.800005 13.5995 1.00002 13.5995 1.19998V1.99999C13.5995 2.23998 13.7595 2.39997 13.9995 2.39997H15.5995V3.19997V5.19996H8.39954V3.20002V2.40001ZM19.5996 22C19.5996 22.68 19.0796 23.1999 18.3996 23.1999H5.5996C4.91959 23.1999 4.39961 22.68 4.39961 22V4.79998C4.39961 4.11997 4.91959 3.6 5.5996 3.6H7.59959V5.20001C7.59959 5.64002 7.95958 6.00001 8.39959 6.00001H15.5996C16.0396 6.00001 16.3996 5.64002 16.3996 5.20001V3.6H18.3996C19.0796 3.6 19.5996 4.11997 19.5996 4.79998V22Z" fill="#00ADB5"/>
<path d="M7.59981 8C7.1598 8 6.7998 8.36 6.7998 8.8C6.7998 9.24001 7.1598 9.60001 7.59981 9.60001C8.03982 9.60001 8.39981 9.24001 8.39981 8.8C8.39981 8.36 8.03982 8 7.59981 8Z" fill="#00ADB5"/>
<path d="M16.3992 8.40002H9.5992C9.3592 8.40002 9.19922 8.56001 9.19922 8.8C9.19922 9.04 9.3592 9.19998 9.5992 9.19998H16.3992C16.6392 9.19998 16.7992 9.04 16.7992 8.8C16.7992 8.56001 16.6392 8.40002 16.3992 8.40002Z" fill="#00ADB5"/>
<path d="M7.59981 11.6C7.1598 11.6 6.7998 11.96 6.7998 12.4C6.7998 12.84 7.1598 13.2 7.59981 13.2C8.03982 13.2 8.39981 12.84 8.39981 12.4C8.39981 11.96 8.03982 11.6 7.59981 11.6Z" fill="#00ADB5"/>
<path d="M16.3992 12H9.5992C9.3592 12 9.19922 12.16 9.19922 12.4C9.19922 12.64 9.3592 12.8 9.5992 12.8H16.3992C16.6392 12.8 16.7992 12.64 16.7992 12.4C16.7992 12.16 16.6392 12 16.3992 12Z" fill="#00ADB5"/>
<path d="M7.59981 15.2C7.1598 15.2 6.7998 15.5599 6.7998 16C6.7998 16.44 7.1598 16.8 7.59981 16.8C8.03982 16.8 8.39981 16.44 8.39981 16C8.39981 15.5599 8.03982 15.2 7.59981 15.2Z" fill="#00ADB5"/>
<path d="M16.3992 15.6H9.5992C9.3592 15.6 9.19922 15.76 9.19922 16C9.19922 16.24 9.3592 16.3999 9.5992 16.3999H16.3992C16.6392 16.3999 16.7992 16.24 16.7992 16C16.7992 15.76 16.6392 15.6 16.3992 15.6Z" fill="#00ADB5"/>
<path d="M7.59981 18.8C7.1598 18.8 6.7998 19.16 6.7998 19.6001C6.7998 20.0401 7.1598 20.4001 7.59981 20.4001C8.03982 20.4001 8.39981 20.0401 8.39981 19.6001C8.39981 19.16 8.03982 18.8 7.59981 18.8Z" fill="#00ADB5"/>
<path d="M16.3992 19.2H9.5992C9.3592 19.2 9.19922 19.3599 9.19922 19.5999C9.19922 19.8399 9.3592 19.9999 9.5992 19.9999H16.3992C16.6392 19.9999 16.7992 19.8399 16.7992 19.5999C16.7992 19.3599 16.6392 19.2 16.3992 19.2Z" fill="#00ADB5"/>
</svg>
