<svg width="30" height="30" viewBox="0 0 30 30" fill="none" xmlns="http://www.w3.org/2000/svg">
<path d="M22.9999 3.49999H20.4999V3.00002C20.4999 2.45001 20.0499 2.00001 19.4999 2.00001H17.9999V1.49998C17.9999 0.649971 17.35 0 16.5 0H13.4999C12.6499 0 12 0.70001 12 1.49998V1.99995H10.5C9.94996 1.99995 9.49997 2.44995 9.49997 2.99996V3.49993H6.99999C5.59997 3.49993 4.5 4.59996 4.5 5.99992V27.4999C4.5 28.8999 5.60002 29.9999 6.99999 29.9999H23C24.4 29.9999 25.4999 28.8999 25.4999 27.4999V5.99998C25.4999 4.60002 24.3999 3.49999 22.9999 3.49999ZM10.4999 3.00002H12.4999C12.7999 3.00002 12.9999 2.80004 12.9999 2.50004V1.49998C12.9999 1.19998 13.1999 1.00001 13.4999 1.00001H16.4999C16.7999 1.00001 16.9999 1.25002 16.9999 1.49998V2.49999C16.9999 2.79998 17.1998 2.99996 17.4998 2.99996H19.4999V3.99996V6.49995H10.4999V4.00002V3.00002ZM24.4999 27.5C24.4999 28.35 23.85 28.9999 23 28.9999H6.99999C6.14998 28.9999 5.50001 28.35 5.50001 27.5V5.99998C5.50001 5.14997 6.14998 4.5 6.99999 4.5H9.49997V6.50001C9.49997 7.05002 9.94996 7.50001 10.5 7.50001H19.5C20.05 7.50001 20.5 7.05002 20.5 6.50001V4.5H23C23.85 4.5 24.4999 5.14997 24.4999 5.99998V27.5Z" fill="white"/>
<path d="M9.50001 10C8.94999 10 8.5 10.45 8.5 11C8.5 11.55 8.94999 12 9.50001 12C10.05 12 10.5 11.55 10.5 11C10.5 10.45 10.05 10 9.50001 10Z" fill="white"/>
<path d="M20.4999 10.5H12C11.7 10.5 11.5 10.7 11.5 11C11.5 11.3 11.7 11.4999 12 11.4999H20.5C20.8 11.4999 21 11.3 21 11C21 10.7 20.7999 10.5 20.4999 10.5Z" fill="white"/>
<path d="M9.50001 14.5C8.94999 14.5 8.5 14.95 8.5 15.5C8.5 16.05 8.94999 16.5 9.50001 16.5C10.05 16.5 10.5 16.05 10.5 15.5C10.5 14.95 10.05 14.5 9.50001 14.5Z" fill="white"/>
<path d="M20.4999 15H12C11.7 15 11.5 15.2 11.5 15.5C11.5 15.8 11.7 15.9999 12 15.9999H20.5C20.8 15.9999 21 15.8 21 15.5C21 15.2 20.7999 15 20.4999 15Z" fill="white"/>
<path d="M9.50001 19C8.94999 19 8.5 19.45 8.5 20C8.5 20.55 8.94999 21 9.50001 21C10.05 21 10.5 20.55 10.5 20C10.5 19.45 10.05 19 9.50001 19Z" fill="white"/>
<path d="M20.4999 19.5H12C11.7 19.5 11.5 19.7 11.5 20C11.5 20.3 11.7 20.4999 12 20.4999H20.5C20.8 20.4999 21 20.3 21 20C21 19.7 20.7999 19.5 20.4999 19.5Z" fill="white"/>
<path d="M9.50001 23.5C8.94999 23.5 8.5 23.95 8.5 24.5C8.5 25.05 8.94999 25.5 9.50001 25.5C10.05 25.5 10.5 25.05 10.5 24.5C10.5 23.95 10.05 23.5 9.50001 23.5Z" fill="white"/>
<path d="M20.4999 24H12C11.7 24 11.5 24.2 11.5 24.5C11.5 24.8 11.7 24.9999 12 24.9999H20.5C20.8 24.9999 21 24.8 21 24.5C21 24.2 20.7999 24 20.4999 24Z" fill="white"/>
</svg>
