<svg width="30" height="30" viewBox="0 0 30 30" fill="none" xmlns="http://www.w3.org/2000/svg">
<path d="M12.1709 13.5265C12.1709 14.0148 12.5667 14.4106 13.055 14.4106H20.9134C21.4017 14.4106 21.7974 14.0148 21.7974 13.5265C21.7974 13.0382 21.4017 12.6425 20.9134 12.6425H13.055C12.5667 12.6425 12.1709 13.0382 12.1709 13.5265Z" fill="white"/>
<path d="M20.9134 17.4541H13.055C12.5667 17.4541 12.1709 17.8499 12.1709 18.3382C12.1709 18.8265 12.5667 19.2222 13.055 19.2222H20.9134C21.4017 19.2222 21.7974 18.8265 21.7974 18.3382C21.7974 17.8499 21.4017 17.4541 20.9134 17.4541Z" fill="white"/>
<path d="M20.9134 22.2656H13.055C12.5667 22.2656 12.1709 22.6614 12.1709 23.1497C12.1709 23.638 12.5667 24.0338 13.055 24.0338H20.9134C21.4017 24.0338 21.7974 23.638 21.7974 23.1497C21.7974 22.6614 21.4017 22.2656 20.9134 22.2656Z" fill="white"/>
<path d="M10.0099 14.4496C10.5196 14.4496 10.9329 14.0363 10.9329 13.5266C10.9329 13.0169 10.5196 12.6036 10.0099 12.6036C9.50014 12.6036 9.08691 13.0169 9.08691 13.5266C9.08691 14.0363 9.50014 14.4496 10.0099 14.4496Z" fill="white"/>
<path d="M10.0099 19.2611C10.5196 19.2611 10.9329 18.8479 10.9329 18.3381C10.9329 17.8284 10.5196 17.4152 10.0099 17.4152C9.50014 17.4152 9.08691 17.8284 9.08691 18.3381C9.08691 18.8479 9.50014 19.2611 10.0099 19.2611Z" fill="white"/>
<path d="M10.0099 24.0727C10.5196 24.0727 10.9329 23.6595 10.9329 23.1498C10.9329 22.64 10.5196 22.2268 10.0099 22.2268C9.50014 22.2268 9.08691 22.64 9.08691 23.1498C9.08691 23.6595 9.50014 24.0727 10.0099 24.0727Z" fill="white"/>
<path d="M26.2337 6.93631L19.5564 0.258934C19.3905 0.0931219 19.1657 0 18.9313 0H4.39091C3.9026 0 3.50684 0.395768 3.50684 0.884069V29.1159C3.50684 29.6042 3.9026 30 4.39091 30H25.6086C26.0969 30 26.4926 29.6042 26.4926 29.1159V7.56144C26.4926 7.32697 26.3995 7.10212 26.2337 6.93631ZM19.6189 2.82195L23.6708 6.87383H19.6189V2.82195ZM24.7245 28.2319H5.27497V1.76814H17.8507V7.7579C17.8507 8.2462 18.2464 8.64197 18.7347 8.64197H24.7245V28.2319Z" fill="white"/>
</svg>
