<svg width="20" height="20" viewBox="0 0 20 20" fill="none" xmlns="http://www.w3.org/2000/svg">
<g clip-path="url(#clip0_295_2)">
<path d="M4.11435 17.0982L9.16139 15.019C9.28777 14.9334 9.41415 14.8478 9.49977 14.7662L17.8123 4.63138C18.0651 4.24816 18.0243 3.74264 17.6859 3.44504L13.7396 0.17954C13.4135 -0.0609899 12.912 -0.0976808 12.594 0.30592L4.24073 10.4367C4.15512 10.5631 4.11435 10.6895 4.0695 10.8199L3.00954 16.2053C2.95654 17.1267 3.69444 17.2857 4.11435 17.0982ZM13.3156 1.99778L15.9859 4.20332L8.74149 13.054L6.09566 10.8648L13.3156 1.99778ZM5.4393 12.5118L7.24939 14.012L4.91747 14.9742L5.4393 12.5118Z" fill="white"/>
<path d="M19.1245 18.2844H4.87622C4.87622 18.2844 1.92056 18.423 1.81049 17.6647C1.81049 17.624 1.7371 17.4364 2.12032 16.9717C2.41793 16.5885 2.37308 16.083 2.03471 15.7853C1.65149 15.4877 1.14597 15.5326 0.848367 15.871C0.0411658 16.8453 -0.170827 17.6933 0.21239 18.4597C1.25197 20.3962 4.74984 19.9396 4.91699 19.9803H19.1245C19.5893 19.9803 19.9725 19.5971 19.9725 19.1324C19.9766 18.6635 19.5934 18.2844 19.1245 18.2844Z" fill="white"/>
</g>
<defs>
<clipPath id="clip0_295_2">
<rect width="20" height="20" fill="white"/>
</clipPath>
</defs>
</svg>
