<svg width="30" height="30" viewBox="0 0 30 30" fill="none" xmlns="http://www.w3.org/2000/svg">
<path d="M7.17188 13.8261H11.5547V17.8957H7.17188V13.8261ZM7.17188 23.3087H11.5547V19.2392H7.17188V23.3087ZM7.17188 28.7087H11.5547V24.6392H7.17188V28.7087ZM12.8555 23.3087H17.2266V19.2392H12.8438V23.3087H12.8555ZM12.8555 28.7087H17.2266V24.6392H12.8438V28.7087H12.8555ZM18.5391 24.6392V28.7087H22.9219V24.6392H18.5391ZM29.8828 8.76525L15.0352 0.991333L0.199219 8.79133L1.125 10.9435L3.01172 9.93916V28.7218H5.14453V9.8609H24.9492V28.7479H27.082V9.96525L28.9688 10.9435L29.8828 8.76525Z" fill="white"/>
</svg>
