<svg width="30" height="30" viewBox="0 0 30 30" fill="none" xmlns="http://www.w3.org/2000/svg">
<path d="M14.9995 0C8.30056 0 2.85059 5.44997 2.85059 12.149C2.85059 14.9132 3.75645 17.5164 5.47027 19.6773C7.68936 22.4752 14.1425 29.1185 14.4161 29.3999L14.9995 30L15.5829 29.3999C15.8567 29.1184 22.3118 22.4737 24.5312 19.6749C26.2435 17.5157 27.1485 14.9133 27.1485 12.149C27.1485 5.44997 21.6985 0 14.9995 0ZM23.256 18.6636C21.4693 20.9167 16.6711 25.9286 14.9995 27.6621C13.3281 25.9287 8.53166 20.9182 6.74541 18.666C5.26212 16.7957 4.47808 14.5422 4.47808 12.149C4.47808 6.34737 9.19796 1.62749 14.9995 1.62749C20.8011 1.62749 25.521 6.34737 25.5209 12.149C25.5209 14.5424 24.7377 16.7951 23.256 18.6636Z" fill="white"/>
<path d="M15 4.82263C11.0346 4.82263 7.80859 8.04864 7.80859 12.014C7.80859 15.9794 11.0347 19.2054 15 19.2054C18.9653 19.2054 22.1914 15.9793 22.1914 12.014C22.1914 8.04872 18.9654 4.82263 15 4.82263ZM15 17.5779C11.932 17.5779 9.43608 15.0819 9.43608 12.014C9.43608 8.94604 11.9321 6.45012 15 6.45012C18.0679 6.45012 20.5638 8.94612 20.5639 12.014C20.5639 15.082 18.068 17.5779 15 17.5779Z" fill="white"/>
</svg>
