<svg width="30" height="30" viewBox="0 0 30 30" fill="none" xmlns="http://www.w3.org/2000/svg">
<g clip-path="url(#clip0_401_2)">
<path d="M29.2263 7.76327L23.338 0.295377C23.1903 0.109161 22.972 0 22.7344 0H7.2721C7.03451 0 6.80977 0.109161 6.6685 0.295377L0.780233 7.76327C0.671072 7.89812 0.613281 8.06507 0.613281 8.23844V29.2295C0.613281 29.6533 0.960028 30 1.38383 30H28.6163C29.0401 30 29.3868 29.6533 29.3868 29.2295V8.23844C29.3932 8.06507 29.3355 7.89812 29.2263 7.76327ZM27.133 7.59632H15.7738V1.5411H22.362L27.133 7.59632ZM7.64453 1.5411H14.2327V7.59632H2.87356L7.64453 1.5411ZM2.15438 28.4589V9.13741H27.8457V28.4589H2.15438Z" fill="white"/>
<path d="M15.5557 13.0415C15.5364 13.0222 15.5171 13.003 15.4979 12.9901C15.485 12.9837 15.4786 12.9773 15.4658 12.9709C15.4529 12.9644 15.4465 12.958 15.4336 12.9452C15.4208 12.9388 15.408 12.9323 15.3951 12.9259C15.3823 12.9195 15.3759 12.9131 15.363 12.9067C15.3502 12.9002 15.3373 12.8938 15.3245 12.8874C15.3116 12.881 15.3052 12.8745 15.2924 12.8745C15.2795 12.8681 15.2667 12.8681 15.2539 12.8617C15.241 12.8553 15.2282 12.8553 15.2217 12.8489C15.2089 12.8424 15.1961 12.8424 15.1832 12.8424C15.1704 12.8424 15.1575 12.836 15.1447 12.836C15.1318 12.836 15.119 12.8296 15.0997 12.8296C15.0869 12.8296 15.0805 12.8232 15.0676 12.8232C15.0163 12.8168 14.9649 12.8168 14.9135 12.8232C14.9007 12.8232 14.8943 12.8232 14.8814 12.8296C14.8686 12.8296 14.8557 12.836 14.8365 12.836C14.8236 12.836 14.8108 12.8424 14.7979 12.8424C14.7851 12.8424 14.7723 12.8489 14.7594 12.8489C14.7466 12.8553 14.7337 12.8553 14.7273 12.8617C14.7145 12.8681 14.7016 12.8681 14.6888 12.8745C14.6759 12.881 14.6695 12.8874 14.6567 12.8874C14.6438 12.8938 14.631 12.9002 14.6182 12.9067C14.6053 12.9131 14.5989 12.9195 14.586 12.9259C14.5732 12.9323 14.5604 12.9388 14.5475 12.9452C14.5347 12.9516 14.5283 12.958 14.5154 12.9709C14.5026 12.9773 14.4961 12.9837 14.4833 12.9901C14.464 13.003 14.4448 13.0222 14.4319 13.0351C14.4319 13.0351 14.4319 13.0351 14.4255 13.0415L10.7654 16.7016C10.4636 17.0034 10.4636 17.4914 10.7654 17.7932C10.9131 17.9409 11.1122 18.018 11.3112 18.018C11.5103 18.018 11.7029 17.9409 11.857 17.7932L14.2008 15.4495V24.2273C14.2008 24.6511 14.5475 24.9978 14.9713 24.9978C15.3951 24.9978 15.7419 24.6511 15.7419 24.2273V15.4495L18.0728 17.7804C18.3746 18.0822 18.8626 18.0822 19.1644 17.7804C19.4662 17.4786 19.4662 16.9906 19.1644 16.6888L15.5557 13.0415Z" fill="white"/>
</g>
<defs>
<clipPath id="clip0_401_2">
<rect width="30" height="30" fill="white"/>
</clipPath>
</defs>
</svg>
