<svg width="30" height="30" viewBox="0 0 30 30" fill="none" xmlns="http://www.w3.org/2000/svg">
<path d="M29.2441 17.6205V17.2995L26.542 8.42455H20.5626V6.30176H6.18911V11.7945H3.12853L1.83415 13.5206H6.18911V14.7683V14.8149H1.29439L0 16.541H6.18846V17.6205H5.50114V20.5329H6.18846V20.9652H6.65574C6.9172 22.514 8.26401 23.6983 9.88653 23.6983C11.509 23.6983 12.8552 22.514 13.1167 20.9652H20.483C20.7432 22.514 22.09 23.6983 23.7125 23.6983C25.3344 23.6983 26.6818 22.514 26.9427 20.9652H29.2434V20.5329H30V17.6205H29.2441ZM9.88653 22.1554C8.92933 22.1554 8.14946 21.3755 8.14946 20.417C8.14946 19.4598 8.92868 18.6806 9.88653 18.6806C10.8437 18.6806 11.6229 19.4592 11.6229 20.417C11.6229 21.3755 10.8437 22.1554 9.88653 22.1554ZM23.7132 22.1554C22.756 22.1554 21.9755 21.3755 21.9755 20.417C21.9755 19.4598 22.7553 18.6806 23.7132 18.6806C24.671 18.6806 25.4496 19.4592 25.4496 20.417C25.4489 21.3755 24.6704 22.1554 23.7132 22.1554ZM22.1055 13.8985V9.96746H25.3985L26.5958 13.8985H22.1055Z" fill="white"/>
</svg>
