<svg width="24" height="24" viewBox="0 0 24 24" fill="none" xmlns="http://www.w3.org/2000/svg">
<path d="M12.9462 2.74252V1.89323H13.6295C14.1523 1.89323 14.5761 1.46939 14.5761 0.946641C14.5761 0.423891 14.1523 0 13.6295 0H10.3697C9.84688 0 9.42308 0.423844 9.42308 0.946594C9.42308 1.46934 9.84692 1.89319 10.3697 1.89319H11.053V2.74247C5.62241 3.22312 1.34961 7.79658 1.34961 13.35C1.34961 19.2224 6.1272 24 11.9997 24C17.8721 24 22.6497 19.2224 22.6497 13.35C22.6497 7.79658 18.3768 3.22312 12.9462 2.74252ZM12.9462 22.0554V21.1121C12.9462 20.5893 12.5224 20.1655 11.9996 20.1655C11.4768 20.1655 11.053 20.5894 11.053 21.1121V22.0554C6.97911 21.6155 3.73409 18.3704 3.29417 14.2966H4.23748C4.76028 14.2966 5.18408 13.8727 5.18408 13.35C5.18408 12.8272 4.76023 12.4034 4.23748 12.4034H3.29412C3.73405 8.3295 6.97916 5.08448 11.053 4.64452V5.58783C11.053 6.11063 11.4768 6.53442 11.9996 6.53442C12.5224 6.53442 12.9462 6.11058 12.9462 5.58783V4.64442C17.0201 5.08434 20.2651 8.32945 20.705 12.4033H19.7617C19.2389 12.4033 18.8151 12.8272 18.8151 13.3499C18.8151 13.8727 19.2389 14.2965 19.7617 14.2965H20.7051C20.2652 18.3705 17.0201 21.6156 12.9462 22.0554Z" fill="#00ADB5"/>
<path d="M14.8705 9.1402L12.1434 11.8674C12.096 11.8628 12.048 11.8603 11.9994 11.8603C11.1767 11.8603 10.5098 12.5273 10.5098 13.3499C10.5098 14.1727 11.1767 14.8396 11.9994 14.8396C12.8221 14.8396 13.489 14.1726 13.489 13.3499C13.489 13.3013 13.4865 13.2534 13.482 13.206L16.2091 10.4789C16.5788 10.1092 16.5788 9.50985 16.2091 9.14015C15.8396 8.77049 15.2402 8.7705 14.8705 9.1402Z" fill="#00ADB5"/>
</svg>
