<svg width="30" height="30" viewBox="0 0 30 30" fill="none" xmlns="http://www.w3.org/2000/svg">
<path d="M15.0001 13.1874C18.6359 13.1874 21.5939 10.2295 21.5939 6.5937C21.5939 2.95786 18.6359 0 15.0001 0C11.3642 0 8.40625 2.95786 8.40625 6.5937C8.40625 10.2295 11.3642 13.1874 15.0001 13.1874ZM15.0001 3.15236C16.8977 3.15236 18.4415 4.69608 18.4415 6.5937C18.4415 8.49131 16.8977 10.035 15.0001 10.035C13.1024 10.035 11.5586 8.49131 11.5586 6.5937C11.5586 4.69608 13.1024 3.15236 15.0001 3.15236Z" fill="white"/>
<path d="M15.0001 16.3397C8.33693 16.3397 2.91602 21.7606 2.91602 28.4238C2.91602 29.2943 3.62172 30 4.4922 30H25.508C26.3784 30 27.0841 29.2943 27.0841 28.4238C27.0841 21.7606 21.6632 16.3397 15.0001 16.3397ZM6.20761 26.8476C6.9543 22.6719 10.6128 19.4921 15.0001 19.4921C19.3873 19.4921 23.0459 22.6719 23.7925 26.8476H6.20761Z" fill="white"/>
</svg>
