<svg width="150" height="23" viewBox="0 0 150 23" fill="none" xmlns="http://www.w3.org/2000/svg">
<path d="M10.5932 0L12.9715 7.31974H20.668L14.4414 11.8436L16.8198 19.1633L10.5932 14.6395L4.36668 19.1633L6.74501 11.8436L0.518469 7.31974H8.21489L10.5932 0Z" fill="#FFBD14"/>
<path d="M139.407 1.69495L141.785 9.01468H149.482L143.255 13.5385L145.633 20.8583L139.407 16.3344L133.18 20.8583L135.559 13.5385L129.332 9.01468H137.028L139.407 1.69495Z" fill="#D9D9D9"/>
<path d="M107.203 1.69495L109.582 9.01468H117.278L111.052 13.5385L113.43 20.8583L107.203 16.3344L100.977 20.8583L103.355 13.5385L97.1286 9.01468H104.825L107.203 1.69495Z" fill="#D9D9D9"/>
<path d="M75 1.69495L77.3783 9.01468H85.0748L78.8482 13.5385L81.2266 20.8583L75 16.3344L68.7735 20.8583L71.1518 13.5385L64.9253 9.01468H72.6217L75 1.69495Z" fill="#D9D9D9"/>
<path d="M42.7966 0L45.1749 7.31974H52.8713L46.6448 11.8436L49.0231 19.1633L42.7966 14.6395L36.5701 19.1633L38.9484 11.8436L32.7218 7.31974H40.4183L42.7966 0Z" fill="#FFBD14"/>
</svg>
