<svg width="32" height="32" viewBox="0 0 32 32" fill="none" xmlns="http://www.w3.org/2000/svg">
<path d="M32 22.4V6.39999H3.73333V1.06666C3.73333 0.771725 3.4944 0.533325 3.2 0.533325H0.533333C0.238933 0.533325 0 0.771725 0 1.06666C0 1.36159 0.238933 1.59999 0.533333 1.59999H2.66667V6.39999V6.93332V21.8667V22.4V26.1333C2.66667 26.4283 2.9056 26.6667 3.2 26.6667H6.94987C6.29653 27.1531 5.86667 27.9248 5.86667 28.8C5.86667 30.2704 7.06293 31.4667 8.53333 31.4667C10.0037 31.4667 11.2 30.2704 11.2 28.8C11.2 27.9248 10.7701 27.1531 10.1168 26.6667H21.3499C20.6965 27.1531 20.2667 27.9248 20.2667 28.8C20.2667 30.2704 21.4629 31.4667 22.9333 31.4667C24.4037 31.4667 25.6 30.2704 25.6 28.8C25.6 27.9248 25.1701 27.1531 24.5168 26.6667H27.7333C28.0277 26.6667 28.2667 26.4283 28.2667 26.1333C28.2667 25.8384 28.0277 25.6 27.7333 25.6H3.73333V22.4H32Z" fill="white"/>
</svg>
